<?xml version="1.0" encoding="UTF-8"?>
<svg version="1.1" xmlns="http://www.w3.org/2000/svg" width="363" height="330">
<path d="M0 0 C12.45395298 4.43603192 22.54490926 10.77211107 32 20 C33.36125 21.299375 33.36125 21.299375 34.75 22.625 C37.61828539 25.65263458 40.32064479 28.80503005 43 32 C46.17150235 30.63297312 47.87537316 29.20004662 50 26.5 C57.08330332 18.22120245 65.51000497 12.03214262 74.8125 6.5 C75.51745605 6.0786377 76.22241211 5.65727539 76.94873047 5.22314453 C81.22795272 2.76014488 85.1974761 1.15511686 90 0 C99.25338549 11.44719725 108 29.88686261 108 45 C109.13695312 44.59007812 110.27390625 44.18015625 111.4453125 43.7578125 C129.596555 37.35893137 146.93671903 35.59390107 166 38 C167.00049265 69.41931711 160.98761795 95.09542803 141 120 C140.34 120.66 139.68 121.32 139 122 C138.01 122 137.02 122 136 122 C134.203125 120.05859375 134.203125 120.05859375 132.25 117.4375 C118.04400098 99.09884671 97.20659866 88.15990019 74.375 84.6875 C48.73099239 81.64673321 24.81635245 88.9727081 4 104 C0.64535317 106.75542734 -2.19503252 109.69225533 -5 113 C-5.80695313 113.91910156 -6.61390625 114.83820313 -7.4453125 115.78515625 C-20.34251681 131.07586013 -28.18394753 150.98897425 -29 171 C-29.05994141 172.02867187 -29.05994141 172.02867187 -29.12109375 173.078125 C-29.8124494 195.03883402 -22.21898316 215.95593585 -8.20043945 232.68823242 C-5.60827384 235.84738714 -5 236.73140331 -5 241 C-23.81507188 257.78101006 -51.97776564 261.23454738 -76 260 C-86.06503923 259.07447915 -95.69690467 257.03680568 -105 253 C-106.16454942 235.27296992 -101.35390783 218.94723833 -94 203 C-95.02738281 202.45472656 -96.05476563 201.90945312 -97.11328125 201.34765625 C-105.81950544 196.64420898 -113.65429035 191.70946708 -121 185 C-121.87011719 184.21109375 -122.74023438 183.4221875 -123.63671875 182.609375 C-129.60667879 176.94869075 -129.60667879 176.94869075 -130.9765625 173.64453125 C-131.01007846 169.86281427 -129.31126987 167.4569432 -127.25 164.4375 C-126.84241455 163.82616211 -126.4348291 163.21482422 -126.01489258 162.58496094 C-118.69252008 151.89952637 -109.48629447 142.60803387 -99 135 C-98.34 135 -97.68 135 -97 135 C-97.58007812 134.06800781 -98.16015625 133.13601562 -98.7578125 132.17578125 C-107.9216053 117.29272793 -116.19539938 101.82190382 -117 84 C-104.66900686 77.08609055 -91.24724317 72.33848742 -77 72 C-77.15597656 71.20980469 -77.31195313 70.41960937 -77.47265625 69.60546875 C-79.2655154 59.21638425 -78.82556372 49.46457798 -78 39 C-63.46348154 34.66825702 -44.14817751 37.04102823 -30 42 C-29.09765625 42.30808594 -28.1953125 42.61617187 -27.265625 42.93359375 C-25.49175327 43.57279925 -23.74048463 44.27479807 -22 45 C-21.938125 43.948125 -21.87625 42.89625 -21.8125 41.8125 C-19.87915319 27.09328631 -10.59622654 10.35772626 0 0 Z " fill="#2FA3E8" transform="translate(152,43)"/>
<path d="M0 0 C9.1067929 4.40159718 16.15744391 10.13689733 23.19140625 17.33984375 C24.29355469 18.41105469 24.29355469 18.41105469 25.41796875 19.50390625 C29.93365454 24.1682566 31.28323712 28.00402854 32.19140625 34.33984375 C32.46404297 35.40912109 32.46404297 35.40912109 32.7421875 36.5 C36.11707438 49.88475545 34.23036616 64.72204779 33.19140625 78.33984375 C35.3290284 65.38958918 35.79095175 52.44251957 36.19140625 39.33984375 C39.61092227 42.41729021 40.55827097 45.90456548 41.81640625 50.21484375 C42.03296875 50.92253906 42.24953125 51.63023437 42.47265625 52.359375 C48.71262895 73.04372896 46.10501654 94.84730391 36.2668457 113.86914062 C30.67571519 124.21527172 30.67571519 124.21527172 27.19140625 127.33984375 C26.20140625 127.33984375 25.21140625 127.33984375 24.19140625 127.33984375 C22.91779139 129.04837635 22.91779139 129.04837635 21.75390625 131.27734375 C15.12763832 141.65740878 2.41442311 149.09899225 -9.4453125 151.98046875 C-16.07385769 152.98844587 -20.89592775 152.68663582 -26.80859375 149.33984375 C-33.82569692 143.13868281 -35.4628283 133.27572633 -36.80859375 124.33984375 C-37.17210937 125.95052734 -37.17210937 125.95052734 -37.54296875 127.59375 C-37.88092984 129.03008465 -38.2195044 130.46627504 -38.55859375 131.90234375 C-38.71585937 132.60681641 -38.873125 133.31128906 -39.03515625 134.03710938 C-40.51719044 140.22175205 -42.61131678 145.35183126 -47.43359375 149.71484375 C-55.37302241 153.53753162 -62.24562871 152.56587314 -70.4296875 149.7734375 C-79.78184185 145.80552924 -90.99255143 139.85212629 -95.99609375 130.58984375 C-97.4238438 127.30463052 -97.4238438 127.30463052 -99.7109375 126.40625 C-108.45697983 121.95993798 -113.08360863 107.32788122 -116.0703125 98.69140625 C-121.98757171 79.22575015 -120.19494975 56.44210175 -110.80859375 38.33984375 C-110.47859375 38.33984375 -110.14859375 38.33984375 -109.80859375 38.33984375 C-109.83179688 39.65855469 -109.855 40.97726563 -109.87890625 42.3359375 C-110.0169769 53.87023016 -109.41722174 64.91740344 -107.80859375 76.33984375 C-107.82954102 75.39367187 -107.85048828 74.4475 -107.87207031 73.47265625 C-107.94581781 69.87939284 -107.99086919 66.28619215 -108.02832031 62.69238281 C-108.04813546 61.15255398 -108.07519585 59.61279717 -108.11035156 58.07324219 C-108.43710528 43.36932497 -107.67101615 29.08237311 -97.21484375 17.7265625 C-96.42078125 16.93894531 -95.62671875 16.15132812 -94.80859375 15.33984375 C-94.11765625 14.62441406 -93.42671875 13.90898437 -92.71484375 13.171875 C-80.11419527 1.01789129 -64.38617671 -5.17828409 -47.0234375 -4.99609375 C-43.98796645 -4.67889993 -42.42898581 -4.07378881 -39.80859375 -2.66015625 C-36.40821994 -2.90745616 -33.60431968 -3.29455244 -30.49609375 -4.72265625 C-20.46852888 -8.22064399 -9.23085076 -4.16839082 0 0 Z M12.19140625 24.33984375 C11.53140625 26.97984375 10.87140625 29.61984375 10.19140625 32.33984375 C13.16140625 32.66984375 16.13140625 32.99984375 19.19140625 33.33984375 C18.59328125 32.04046875 17.99515625 30.74109375 17.37890625 29.40234375 C17.04246094 28.67144531 16.70601562 27.94054687 16.359375 27.1875 C15.25540491 25.00954886 15.25540491 25.00954886 12.19140625 24.33984375 Z M-87.80859375 25.33984375 C-88.98366327 26.91237566 -88.98366327 26.91237566 -90.12109375 28.83984375 C-91.43359375 30.78125 -91.43359375 30.78125 -92.80859375 32.33984375 C-95.62109375 32.77734375 -95.62109375 32.77734375 -97.80859375 32.33984375 C-98.13859375 33.65984375 -98.46859375 34.97984375 -98.80859375 36.33984375 C-96.86936953 35.88886137 -94.93225781 35.42878816 -92.99609375 34.96484375 C-91.91714844 34.70960938 -90.83820313 34.454375 -89.7265625 34.19140625 C-86.65326032 33.45251494 -86.65326032 33.45251494 -83.80859375 31.33984375 C-84.46859375 29.35984375 -85.12859375 27.37984375 -85.80859375 25.33984375 C-86.46859375 25.33984375 -87.12859375 25.33984375 -87.80859375 25.33984375 Z M-76.80859375 30.33984375 C-77.13859375 30.99984375 -77.46859375 31.65984375 -77.80859375 32.33984375 C-78.79859375 32.99984375 -79.78859375 33.65984375 -80.80859375 34.33984375 C-78.49859375 34.33984375 -76.18859375 34.33984375 -73.80859375 34.33984375 C-74.46859375 33.01984375 -75.12859375 31.69984375 -75.80859375 30.33984375 C-76.13859375 30.33984375 -76.46859375 30.33984375 -76.80859375 30.33984375 Z M3.19140625 30.33984375 C1.70640625 32.31984375 1.70640625 32.31984375 0.19140625 34.33984375 C2.50140625 34.33984375 4.81140625 34.33984375 7.19140625 34.33984375 C6.20140625 34.00984375 5.21140625 33.67984375 4.19140625 33.33984375 C3.86140625 32.34984375 3.53140625 31.35984375 3.19140625 30.33984375 Z M19.19140625 34.33984375 C21.17140625 34.99984375 23.15140625 35.65984375 25.19140625 36.33984375 C24.86140625 35.01984375 24.53140625 33.69984375 24.19140625 32.33984375 C21.86783114 32.15494368 21.86783114 32.15494368 19.19140625 34.33984375 Z M-76.80859375 44.33984375 C-82.61198545 51.59408338 -83.61806683 59.32180769 -82.80859375 68.33984375 C-81.90251285 72.99058712 -80.65722951 76.34976869 -77.55859375 79.96484375 C-73.74662677 81.87082724 -71.84671285 81.6378106 -67.80859375 80.33984375 C-65.42733847 78.48386537 -64.44895106 77.00542437 -62.80859375 74.33984375 C-62.84927805 71.53499248 -62.84927805 71.53499248 -63.80859375 69.33984375 C-64.73671875 69.56671875 -65.66484375 69.79359375 -66.62109375 70.02734375 C-69.80859375 70.33984375 -69.80859375 70.33984375 -71.62109375 69.02734375 C-73.80428809 65.92490969 -73.9192798 63.97335573 -73.87109375 60.21484375 C-73.86207031 59.30476563 -73.85304688 58.3946875 -73.84375 57.45703125 C-73.83214844 56.75835937 -73.82054687 56.0596875 -73.80859375 55.33984375 C-69.13550562 54.57330953 -65.13917995 53.93043261 -60.55859375 55.33984375 C-54.76104376 59.55624374 -51.08460212 63.92618471 -49.85546875 71.12890625 C-49.76463628 75.41317101 -51.41963963 78.51655871 -54.0078125 81.9140625 C-57.39916933 84.59919318 -61.84549644 85.12739841 -65.97265625 86.1796875 C-68.9116183 87.02366377 -68.9116183 87.02366377 -69.80859375 89.28125 C-69.80859375 92.76649268 -67.91653005 94.67718737 -65.80859375 97.33984375 C-62.07080058 100.7672548 -58.60976693 102.33471932 -53.80859375 103.90234375 C-49.42038505 105.34458907 -45.73388404 106.92158456 -41.80859375 109.33984375 C-41.14859375 109.33984375 -40.48859375 109.33984375 -39.80859375 109.33984375 C-39.75324463 108.51782471 -39.69789551 107.69580566 -39.64086914 106.84887695 C-39.38764985 103.11646154 -39.1294252 99.38440868 -38.87109375 95.65234375 C-38.78408203 94.35876953 -38.69707031 93.06519531 -38.60742188 91.73242188 C-38.52041016 90.48525391 -38.43339844 89.23808594 -38.34375 87.953125 C-38.26519775 86.80626221 -38.18664551 85.65939941 -38.10571289 84.4777832 C-37.84259083 81.69889424 -37.41703575 79.06111729 -36.80859375 76.33984375 C-36.75324463 77.12109619 -36.69789551 77.90234863 -36.64086914 78.70727539 C-36.38683436 82.27248567 -36.12899804 85.83741138 -35.87109375 89.40234375 C-35.78408203 90.63146484 -35.69707031 91.86058594 -35.60742188 93.12695312 C-35.18711862 98.90223112 -34.75123571 104.62454607 -33.80859375 110.33984375 C-33.14214844 110.03691406 -32.47570312 109.73398438 -31.7890625 109.421875 C-30.86738281 109.00292969 -29.94570312 108.58398438 -28.99609375 108.15234375 C-27.99578125 107.69472656 -26.99546875 107.23710937 -25.96484375 106.765625 C-23.93202849 105.84733593 -21.89078929 104.94736158 -19.83984375 104.0703125 C-13.66033888 101.39648828 -8.32564079 98.95125907 -4.37109375 93.27734375 C-3.65065961 90.79584839 -3.64670966 89.66361193 -4.80859375 87.33984375 C-7.13214758 86.10545578 -9.46164519 85.4307554 -12 84.765625 C-16.00884419 83.62307138 -18.37250117 82.77593633 -21.37109375 79.77734375 C-23.30214525 75.15961189 -23.60427612 71.27468187 -22.80859375 66.33984375 C-20.17048761 61.06363147 -16.55478568 57.85747613 -11.43359375 55.02734375 C-7.8684158 54.09360667 -5.36174695 54.41865588 -1.80859375 55.33984375 C0.19140625 56.96484375 0.19140625 56.96484375 1.19140625 59.33984375 C1.12084927 63.29103482 0.79305194 65.55148043 -1.62109375 68.71484375 C-3.77040407 70.31147427 -5.18338151 70.96481343 -7.80859375 71.33984375 C-8.13859375 70.34984375 -8.46859375 69.35984375 -8.80859375 68.33984375 C-10.095814 69.42619644 -10.095814 69.42619644 -10.18359375 72.02734375 C-9.67402553 76.52852969 -8.12124594 78.31524827 -4.80859375 81.33984375 C-1.80859375 82.25651042 -1.80859375 82.25651042 1.19140625 81.33984375 C5.73424163 77.95912905 8.05726593 73.82591786 9.19140625 68.33984375 C9.84235521 61.20615648 10.21721669 53.57060337 6.19140625 47.33984375 C0.46276154 40.85626137 -6.62943527 37.99097719 -15.15625 37.32421875 C-17.90263017 37.34039772 -20.30995976 37.71856402 -22.99609375 38.27734375 C-32.86782449 40.32988183 -42.70224258 39.80524127 -52.52734375 37.796875 C-61.07718011 36.0839797 -70.14455928 38.78648169 -76.80859375 44.33984375 Z M-92.80859375 38.33984375 C-91.3146816 42.48846034 -91.3146816 42.48846034 -88.30859375 43.21484375 C-87.48359375 43.25609375 -86.65859375 43.29734375 -85.80859375 43.33984375 C-85.14859375 42.67984375 -84.48859375 42.01984375 -83.80859375 41.33984375 C-86.77859375 40.34984375 -89.74859375 39.35984375 -92.80859375 38.33984375 Z M18.19140625 38.33984375 C17.38703125 38.83484375 17.38703125 38.83484375 16.56640625 39.33984375 C13.65230015 40.56683579 11.32272917 40.48217661 8.19140625 40.33984375 C9.51140625 41.32984375 10.83140625 42.31984375 12.19140625 43.33984375 C14.50140625 42.34984375 16.81140625 41.35984375 19.19140625 40.33984375 C18.86140625 39.67984375 18.53140625 39.01984375 18.19140625 38.33984375 Z M-93.80859375 60.33984375 C-92.80859375 62.33984375 -92.80859375 62.33984375 -92.80859375 62.33984375 Z M19.19140625 61.33984375 C20.19140625 63.33984375 20.19140625 63.33984375 20.19140625 63.33984375 Z M-94.80859375 62.33984375 C-99.43964711 71.01656451 -103.78263703 79.6271689 -105.80859375 89.33984375 C-105.47859375 89.99984375 -105.14859375 90.65984375 -104.80859375 91.33984375 C-99.75849763 81.99716594 -96.31162142 72.64934387 -93.80859375 62.33984375 C-94.13859375 62.33984375 -94.46859375 62.33984375 -94.80859375 62.33984375 Z M20.19140625 63.33984375 C22.79019055 73.5184156 25.60861179 83.36749551 31.19140625 92.33984375 C32.32096731 88.95116056 32.0909588 88.35008686 30.8984375 85.13671875 C30.59744141 84.32074219 30.29644531 83.50476563 29.98632812 82.6640625 C29.66212891 81.81457031 29.33792969 80.96507812 29.00390625 80.08984375 C28.54661133 78.83880859 28.54661133 78.83880859 28.08007812 77.5625 C26.18807625 72.50922875 23.99957321 67.94747912 21.19140625 63.33984375 C20.86140625 63.33984375 20.53140625 63.33984375 20.19140625 63.33984375 Z M-87.80859375 77.33984375 C-88.16050781 77.88511719 -88.51242188 78.43039063 -88.875 78.9921875 C-91.57165751 83.11110302 -94.3299082 87.00486736 -97.49609375 90.77734375 C-102.3666264 97.0086017 -104.18507444 103.0719737 -103.68359375 110.96484375 C-103.07304069 115.78752691 -101.73939801 119.89059915 -99.80859375 124.33984375 C-98.61832221 120.76902914 -98.98458924 118.44969785 -99.37109375 114.71484375 C-100.2877225 102.65002753 -96.87854816 95.93190747 -90.26953125 86.03515625 C-89.80804688 85.33132812 -89.3465625 84.6275 -88.87109375 83.90234375 C-88.44957031 83.28488281 -88.02804688 82.66742188 -87.59375 82.03125 C-86.48839962 80.15663725 -86.48839962 80.15663725 -87.80859375 77.33984375 Z M13.19140625 77.33984375 C13.68546607 81.89836904 14.68641994 84.49407964 17.50390625 88.08984375 C25.96375092 99.90925637 25.69892434 110.19570498 25.19140625 124.33984375 C29.45167785 117.94943635 30.95865665 110.441511 29.56640625 102.90234375 C26.98596237 92.98800672 20.34033669 84.48877419 13.19140625 77.33984375 Z M-106.80859375 92.33984375 C-105.80859375 94.33984375 -105.80859375 94.33984375 -105.80859375 94.33984375 Z M32.19140625 93.33984375 C33.19140625 96.33984375 33.19140625 96.33984375 33.19140625 96.33984375 Z M10.19140625 97.33984375 C10.19140625 100.33984375 10.19140625 100.33984375 10.19140625 100.33984375 Z M15.19140625 108.33984375 C15.19140625 109.65984375 15.19140625 110.97984375 15.19140625 112.33984375 C15.85140625 112.00984375 16.51140625 111.67984375 17.19140625 111.33984375 C16.86140625 110.34984375 16.53140625 109.35984375 16.19140625 108.33984375 C15.86140625 108.33984375 15.53140625 108.33984375 15.19140625 108.33984375 Z M-78.80859375 113.33984375 C-78.80859375 114.32984375 -78.80859375 115.31984375 -78.80859375 116.33984375 C-77.81859375 116.00984375 -76.82859375 115.67984375 -75.80859375 115.33984375 C-76.13859375 114.67984375 -76.46859375 114.01984375 -76.80859375 113.33984375 C-77.46859375 113.33984375 -78.12859375 113.33984375 -78.80859375 113.33984375 Z " fill="#03A9AD" transform="translate(250.80859375,143.66015625)"/>
<path d="M0 0 C0.886875 0.763125 1.77375 1.52625 2.6875 2.3125 C3.32945313 2.85777344 3.97140625 3.40304688 4.6328125 3.96484375 C6.39441719 5.47935868 8.13619168 7.01699991 9.8671875 8.56640625 C17.40550334 15.23826252 25.05402852 20.35729265 34 25 C35.02222656 25.5878125 36.04445313 26.175625 37.09765625 26.78125 C42.69356582 29.13108013 47.41247251 26.13024086 52.75 24 C58.56257231 21.73734343 63.70908641 20.22467549 70 20 C69.855625 21.12277344 69.71125 22.24554688 69.5625 23.40234375 C66.44702999 48.19860242 68.93968654 73.07168966 84.671875 93.5546875 C86.0232785 95.2888736 87.38759974 97.00293989 88.79956055 98.68823242 C91.39172616 101.84738714 92 102.73140331 92 107 C73.18492812 123.78101006 45.02223436 127.23454738 21 126 C10.93496077 125.07447915 1.30309533 123.03680568 -8 119 C-9.16454942 101.27296992 -4.35390783 84.94723833 3 69 C1.45892578 68.18208984 1.45892578 68.18208984 -0.11328125 67.34765625 C-8.81950544 62.64420898 -16.65429035 57.70946708 -24 51 C-24.87011719 50.21109375 -25.74023438 49.4221875 -26.63671875 48.609375 C-32.60667879 42.94869075 -32.60667879 42.94869075 -33.9765625 39.64453125 C-34.01007846 35.86281427 -32.31126987 33.4569432 -30.25 30.4375 C-29.84241455 29.82616211 -29.4348291 29.21482422 -29.01489258 28.58496094 C-21.83248605 18.10377673 -11.53160135 5.76580067 0 0 Z " fill="#0C96E8" transform="translate(55,177)"/>
<path d="M0 0 C-0.33 11.88 -0.66 23.76 -1 36 C0.98 36.66 2.96 37.32 5 38 C14.17366677 42.63696271 24.04164556 48.41463945 30 57 C29.41734375 57.47566406 28.8346875 57.95132813 28.234375 58.44140625 C13.72269206 70.83109781 2.62651552 86.31468904 -2.3125 104.9296875 C-3.04125977 107.17431641 -3.04125977 107.17431641 -4 109 C-7.15234375 110.578125 -7.15234375 110.578125 -10.9375 111.25 C-12.29064342 111.52220382 -13.64222396 111.80228424 -14.9921875 112.08984375 C-15.66604492 112.22890137 -16.33990234 112.36795898 -17.03417969 112.51123047 C-21.01074394 113.49993907 -24.64281518 115.36765954 -28.31640625 117.14453125 C-32.92610442 118.61399835 -36.0195803 117.46581552 -40.296875 115.43359375 C-47.72175555 111.14160963 -54.51223256 106.65545517 -61 101 C-61.86625 100.25492187 -62.7325 99.50984375 -63.625 98.7421875 C-80.14686553 84.23638294 -89.51885909 65.4544009 -94 44 C-94.10546875 41.05859375 -94.10546875 41.05859375 -94 39 C-81.66900686 32.08609055 -68.24724317 27.33848742 -54 27 C-54.23396484 25.81470703 -54.23396484 25.81470703 -54.47265625 24.60546875 C-56.2655154 14.21638425 -55.82556372 4.46457798 -55 -6 C-37.54134818 -11.20251067 -16.26192307 -6.9693956 0 0 Z " fill="#F36964" transform="translate(129,88)"/>
<path d="M0 0 C1.00049265 31.41931711 -5.01238205 57.09542803 -25 82 C-25.66 82.66 -26.32 83.32 -27 84 C-27.99 84 -28.98 84 -30 84 C-31.796875 82.05859375 -31.796875 82.05859375 -33.75 79.4375 C-42.1543455 68.58825399 -51.85769816 61.36444323 -64 55 C-63.54345959 52.83295484 -63.08467364 50.66638271 -62.625 48.5 C-62.36976563 47.2934375 -62.11453125 46.086875 -61.8515625 44.84375 C-61.29566308 42.3345526 -60.66037573 39.84128191 -59.9375 37.375 C-58.45476583 31.52367322 -58.53332882 25.50330106 -58.375 19.5 C-58.31699219 17.69402344 -58.31699219 17.69402344 -58.2578125 15.8515625 C-58.16414984 12.90118881 -58.07842476 9.95081144 -58 7 C-38.60288199 0.00648126 -20.49912586 -2.58732612 0 0 Z " fill="#F36963" transform="translate(318,81)"/>
<path d="M0 0 C3.52222851 2.83245876 6.80201349 5.80761417 10 9 C10.68449219 9.67289063 11.36898437 10.34578125 12.07421875 11.0390625 C29.36432921 29.17839253 35.83640198 53.08030753 35.3125 77.60546875 C34.29271013 101.41331312 23.16741914 122.74979176 6 139 C-13.33407933 155.81108821 -36.45432139 163.27322046 -62 162 C-80.96585783 160.39502276 -98.49142507 153.35915642 -113 141 C-113.73734375 140.40703125 -114.4746875 139.8140625 -115.234375 139.203125 C-131.81490318 125.3669601 -142.09877038 103.86246765 -144.68359375 82.625 C-146.86752814 57.60412207 -140.46931593 34.76041061 -125.1875 14.75 C-93.74811627 -22.64567323 -38.90220401 -28.74758458 0 0 Z M-120.4765625 18.77734375 C-134.50209995 36.34541385 -140.44048963 57.68015528 -139 80 C-136.10141198 102.89199827 -125.43145042 122.40994447 -108.13671875 137.58203125 C-89.60308242 151.86885676 -66.31065448 158.54665933 -43.015625 155.53515625 C-23.69265243 152.58120621 -7.93560858 143.69240424 6 130 C6.62519531 129.38769531 7.25039063 128.77539062 7.89453125 128.14453125 C22.51641099 112.6644825 29.56700601 90.65229473 29.35131836 69.69946289 C28.61922224 45.86169915 18.50610907 26.53287311 1.8828125 9.87890625 C-14.22243052 -5.25294296 -35.17606442 -12.57459649 -57.08544922 -12.42163086 C-82.07296637 -11.61429265 -104.00908272 0.30987037 -120.4765625 18.77734375 Z " fill="#199EAA" transform="translate(269,146)"/>
<path d="M0 0 C0.886875 0.763125 1.77375 1.52625 2.6875 2.3125 C3.32945313 2.85777344 3.97140625 3.40304688 4.6328125 3.96484375 C6.39441719 5.47935868 8.13619168 7.01699991 9.8671875 8.56640625 C16.54690684 14.47558899 23.21677658 19.16215567 31.1015625 23.34375 C34 25 34 25 37 28 C31.06 29.485 31.06 29.485 25 31 C25.99 32.32 26.98 33.64 28 35 C28 37.5 28 37.5 27 40 C26.278125 40.55171875 25.55625 41.1034375 24.8125 41.671875 C21.23424596 44.63387417 18.73266356 48.01859646 16 51.75 C15.23816406 52.76707031 15.23816406 52.76707031 14.4609375 53.8046875 C11.05905124 58.39287256 7.95504944 63.1130543 5 68 C-0.03552797 67.48491546 -3.79865347 65.78597377 -8.0625 63.1875 C-8.71009277 62.7958667 -9.35768555 62.4042334 -10.02490234 62.00073242 C-17.11489974 57.54463189 -23.22103057 52.0361275 -29 46 C-29.49854492 45.49774902 -29.99708984 44.99549805 -30.51074219 44.47802734 C-33.99326866 40.72586272 -33.99326866 40.72586272 -34.0234375 37.47265625 C-28.34252897 23.74740778 -13.43233073 6.71616537 0 0 Z " fill="#34B5F0" transform="translate(55,177)"/>
<path d="M0 0 C1.09957031 0.26425781 2.19914062 0.52851563 3.33203125 0.80078125 C6.2275699 1.51202532 9.11563231 2.24492992 12 3 C11.48050781 3.99257812 10.96101563 4.98515625 10.42578125 6.0078125 C9.72031527 7.37967459 9.01597129 8.75211399 8.3125 10.125 C7.93875244 10.84333008 7.56500488 11.56166016 7.17993164 12.30175781 C5.39094014 15.8339389 3.83852102 19.18761438 2.8828125 23.0390625 C1.92881867 26.78407959 1.07723815 29.73381633 -1 33 C-5.24354312 35.08572204 -9.4553194 35.84125935 -14.06640625 36.59179688 C-18.06177727 37.43526409 -21.66231328 39.37709054 -25.31640625 41.14453125 C-29.92610442 42.61399835 -33.0195803 41.46581552 -37.296875 39.43359375 C-44.72090851 35.14209926 -51.51549886 30.65804511 -58 25 C-59.36898437 23.81277344 -59.36898437 23.81277344 -60.765625 22.6015625 C-67.65219907 16.52170139 -67.65219907 16.52170139 -70 13 C-60.25323794 7.53714414 -50.95157643 2.61854073 -40 0 C-39.13761719 -0.22300781 -38.27523437 -0.44601563 -37.38671875 -0.67578125 C-25.3425434 -3.36241824 -11.93884386 -2.9445579 0 0 Z " fill="#44487E" transform="translate(126,164)"/>
<path d="M0 0 C12.45395298 4.43603192 22.54490926 10.77211107 32 20 C33.36125 21.299375 33.36125 21.299375 34.75 22.625 C37.16992402 25.17936425 39.43106357 27.83189774 41.66796875 30.546875 C42.9579691 32.12779183 42.9579691 32.12779183 45 33 C46.75 35.8125 46.75 35.8125 48 39 C47.16998243 41.69883012 46.45181807 42.73842112 43.99609375 44.16015625 C36.6763247 46.74163205 29.36340447 48.168041 21.72265625 49.38671875 C17.93198653 49.95919525 17.93198653 49.95919525 14 51 C13.01 48.36 12.02 45.72 11 43 C6.84267439 44.34428493 2.78965948 45.8354167 -1.25 47.5 C-2.80460937 48.13421875 -2.80460937 48.13421875 -4.390625 48.78125 C-7.08770652 49.86008318 -7.08770652 49.86008318 -9 52 C-12.77745297 51.65082368 -15.5638478 50.32850651 -18.8125 48.4375 C-19.60269531 47.98246094 -20.39289063 47.52742188 -21.20703125 47.05859375 C-22.09455078 46.53458984 -22.09455078 46.53458984 -23 46 C-19.21979288 28.69063055 -11.67933743 13.39688705 0 0 Z " fill="#34B5F0" transform="translate(152,43)"/>
<path d="M0 0 C-0.33 11.55 -0.66 23.1 -1 35 C-4.84847794 34.23030441 -7.55203756 33.32017417 -11.05371094 31.76660156 C-14.63776848 30.35491808 -18.35588152 29.62403941 -22.125 28.875 C-22.97868164 28.70323242 -23.83236328 28.53146484 -24.71191406 28.35449219 C-34.41645431 26.5377571 -44.14934151 26.19780439 -54 26 C-56.35969025 15.1376242 -55.8598024 5.00314689 -55 -6 C-37.54134818 -11.20251067 -16.26192307 -6.9693956 0 0 Z " fill="#ED53F2" transform="translate(129,88)"/>
<path d="M0 0 C18.13140521 6.92696291 35.20150593 22.87404563 44.51171875 39.73828125 C45.86162783 42.2975801 45.86162783 42.2975801 49 43 C49 43.66 49 44.32 49 45 C48.10796875 45.47050781 47.2159375 45.94101563 46.296875 46.42578125 C45.11448908 47.05451027 43.93220265 47.68342643 42.75 48.3125 C41.00976562 49.23482422 41.00976562 49.23482422 39.234375 50.17578125 C36.06842482 51.8365874 36.06842482 51.8365874 33.828125 53.79296875 C32 55 32 55 29.96484375 54.87890625 C27.69041373 53.86151708 26.34351194 52.67884575 24.5625 50.9375 C17.06613195 44.12771519 8.05375963 39.40920418 -1 35 C-1.02480683 30.81909587 -1.04291049 26.63823128 -1.05493164 22.45727539 C-1.05994565 21.03636936 -1.06675852 19.61546844 -1.07543945 18.19458008 C-1.08763388 16.14663424 -1.09325772 14.0987569 -1.09765625 12.05078125 C-1.10289307 10.82012939 -1.10812988 9.58947754 -1.11352539 8.3215332 C-1.01393817 5.40780381 -0.67799322 2.82692674 0 0 Z " fill="#193FCB" transform="translate(129,89)"/>
<path d="M0 0 C0.65399486 16.16876528 -0.42274732 30.45368824 -5 46 C-8.5682713 45.39277984 -11.89384733 44.399831 -15.31762695 43.2355957 C-23.13514289 40.59786575 -30.55778734 39.19471012 -38.76953125 38.45703125 C-42 38 -42 38 -45 36 C-44.34 36 -43.68 36 -43 36 C-42.62294922 35.16662109 -42.62294922 35.16662109 -42.23828125 34.31640625 C-35.98242815 22.61381669 -14.31738469 0 0 0 Z " fill="#45497E" transform="translate(260,89)"/>
<path d="M0 0 C8.27905661 4.15952602 16.65444329 9.25756463 22 17 C21.40574219 17.49886719 20.81148437 17.99773437 20.19921875 18.51171875 C16.16968671 22.00230871 12.4496691 25.2500005 9.30859375 29.5625 C6.73009196 33.07825404 4.33782839 36.15967991 1 39 C-4.77200351 39.80282063 -9.22917023 38.18055318 -14 35 C-13.2265625 34.91878906 -12.453125 34.83757812 -11.65625 34.75390625 C-8.93447305 34.25529941 -8.93447305 34.25529941 -7.59375 32.27734375 C-3.13477374 22.73831953 0.50692464 12.45152751 2 2 C1.34 2 0.68 2 0 2 C0 1.34 0 0.68 0 0 Z " fill="#C2406B" transform="translate(137,128)"/>
<path d="M0 0 C0 0.99 0 1.98 0 3 C-2.1875 4.82421875 -2.1875 4.82421875 -5 6.6875 C-5.928125 7.31011719 -6.85625 7.93273437 -7.8125 8.57421875 C-8.534375 9.04472656 -9.25625 9.51523438 -10 10 C-10.598125 9.236875 -11.19625 8.47375 -11.8125 7.6875 C-13.47400977 5.64621657 -15.12604939 3.83099472 -17 2 C-15.10507994 1.66151348 -13.20901534 1.32943089 -11.3125 1 C-9.72888672 0.7215625 -9.72888672 0.7215625 -8.11328125 0.4375 C-5.35095938 0.04931926 -2.78257957 -0.08259976 0 0 Z " fill="#158DDE" transform="translate(95,205)"/>
<path d="M0 0 C0.66 0.33 1.32 0.66 2 1 C2 5.29 2 9.58 2 14 C1.01 14.33 0.02 14.66 -1 15 C-1.10251672 9.87416389 -1.03590199 5.05002222 0 0 Z " fill="#11A3AD" transform="translate(213,219)"/>
<path d="M0 0 C0.33 1.32 0.66 2.64 1 4 C1.66 4 2.32 4 3 4 C1.79618552 6.49361571 0.54571278 8.68143083 -1 11 C-1.66 11 -2.32 11 -3 11 C-2.69078116 9.54096742 -2.37751201 8.08279278 -2.0625 6.625 C-1.88847656 5.81289063 -1.71445312 5.00078125 -1.53515625 4.1640625 C-1 2 -1 2 0 0 Z " fill="#13A1AB" transform="translate(279,260)"/>
</svg>
